<svg width="423" height="400" viewBox="0 0 423 400" fill="none" xmlns="http://www.w3.org/2000/svg">
<g clip-path="url(#clip0_3_63)">
<path d="M84.3024 322.351C84.6481 324.289 84.6073 322.242 84.3024 322.351C84.6481 324.289 84.3594 326.495 85.3286 328.254C86.2978 330.014 86.9999 328.003 87.8445 327.36C86.5322 325.722 87.3901 321.252 84.3024 322.351ZM110.009 250.348C110.009 250.348 110.423 250.544 110.727 250.436C109.901 250.043 109.704 250.456 110.009 250.348ZM99.1246 208.878C99.2331 209.183 99.0366 209.596 99.145 209.901C100.039 208.552 99.5176 208.051 99.1246 208.878ZM72.8953 252.728C72.8953 252.728 72.7868 252.423 73.0918 252.314L72.8953 252.728ZM224.684 221.07C224.413 222.24 225.457 223.243 226.627 223.514C226.356 224.683 227.203 226.099 227.847 226.944C229.23 228.9 230.294 230.926 232.019 232.759C235.846 236.637 239.368 240.622 243.734 243.964C246.178 245.886 248.927 247.699 251.714 249.499C253.063 250.393 256.632 251.614 256.673 253.661C260.036 254.182 261.886 258.419 265.744 257.433C264.578 256.087 263.374 254.755 262.026 253.861C260.53 252.675 259.189 252.766 258.181 251.02C256.995 248.651 254.178 248.579 252.771 246.675C251.924 245.259 251.619 245.368 249.934 245.581C248.301 245.818 248.547 244.7 247.528 243.645C246.446 242.656 245.263 242.347 244.023 241.758C243.246 240.66 242.494 239.511 241.545 238.775C240.955 238.249 240.222 237.912 239.44 237.806C239.114 236.891 238.897 236.281 238.254 235.437C237.063 234.143 235.358 233.332 234.118 232.743C234.928 231.038 231.857 230.37 231.766 229.028C231.529 227.395 230.271 227.842 229.105 226.497C229.484 225.632 229.268 225.022 228.637 224.215C227.668 222.456 227.288 219.457 224.684 221.07C225.834 220.318 224.413 222.24 224.684 221.07ZM205.194 172.184C205.126 173.926 206.109 175.723 207.78 175.472C207.638 174.106 206.757 171.628 205.194 172.184ZM240.379 301.662L240.596 302.272C242.209 304.876 247.118 309.742 250.097 308.339C249.668 306.045 247.009 305.573 245.247 304.483C243.847 303.564 242.552 300.89 240.379 301.662ZM194.494 147.05C195.359 147.429 196.707 148.324 194.494 147.05V147.05ZM271.038 236.701C269.726 235.064 270.801 235.068 269.4 234.149C270.123 233.162 268.523 230.596 268.503 229.573C268.34 227.184 266.653 225.337 266.503 222.985C266.653 225.337 265.035 223.808 265.55 223.324C264.636 223.649 264.764 224.978 265.198 226.197C265.74 227.722 266.255 227.238 265.845 229.102C265.574 230.272 265.791 230.881 266.421 231.688C267.95 233.935 268.041 239.141 271.526 240.005C272.529 238.961 271.777 237.812 271.038 236.701ZM295.51 162.433L295.401 162.128C295.205 162.541 295.205 162.541 295.51 162.433ZM302.126 174.034C301.049 171.97 297.917 161.233 295.096 162.236L295.205 162.541C295.042 164.016 296.608 165.52 296.228 166.385C295.404 168.052 297.828 168.95 298.604 170.048C299.587 171.845 299.644 175.99 302.126 174.034ZM290.359 282.212C290.129 281.564 289.677 281.381 289.677 281.381C289.786 281.686 289.894 281.991 290.321 282.226L290.359 282.212ZM285.141 254.742C285.249 255.047 285.249 255.047 285.663 255.244C285.751 254.525 285.141 254.742 285.141 254.742ZM311.539 120.45C311.647 120.755 311.952 120.646 312.061 120.951C311.735 120.037 311.43 120.145 311.539 120.45ZM473.386 194.103C471.694 193.331 470.185 192.107 468.837 191.213C464.297 188.199 459.151 186.218 453.762 185.411C456.962 183.542 463.393 185.807 466.23 186.902C469.823 188.071 472.986 190.081 473.386 194.103ZM475.662 185.651C476.204 187.176 476.651 188.433 476.85 190.08C471.583 187.102 466.051 182.414 459.478 182.648C457.807 182.899 456.027 182.845 454.444 182.377C452.919 182.92 451.209 183.184 449.759 182.97C446.125 182.914 442.502 183.379 438.999 184.349C440.49 186.61 438.765 188.641 442.412 188.03C445.107 187.759 447.368 186.268 450.101 185.983C454.932 185.682 461.688 188.861 466.02 191.141C471.084 193.548 472.975 195.967 476.206 200.099C475.453 202.814 477.485 213.598 474.059 213.744C473.248 215.449 475.347 215.433 473.804 217.012C473.068 217.96 471.81 218.408 470.59 218.842C467.878 220.15 466.01 220.814 463.566 218.893C464.193 213.775 460.886 208.339 457.778 204.549C455.943 202.411 454.326 200.882 453.337 198.1C452.122 195.515 450.251 193.293 447.91 191.657C445.466 189.735 443.687 189.681 440.92 188.905C439.788 188.62 438.101 186.773 437.059 187.83C438.137 189.894 440.761 189.304 441.191 191.599C442.772 190.006 444.554 192.12 445.002 193.378C445.34 194.331 445.679 195.284 446.615 195.982C447.805 197.276 447.048 197.202 447.299 198.873C448.18 201.35 450.211 203.075 450.787 205.661C451.113 206.576 452.027 206.251 452.587 206.739L453.252 208.606C454.024 210.779 455.102 212.843 455.556 215.086C456.108 217.724 454.999 220.522 454.965 223.325C450.616 225.946 446.896 229.373 441.455 229.891C440.127 230.02 440.039 230.738 438.76 230.162C437.468 229.548 436.746 230.535 435.723 230.556C434.686 230.538 433.624 230.572 432.475 231.324C431.845 230.518 430.713 230.233 429.956 230.159C428.201 230.053 427.783 230.932 426.936 229.516C425.845 227.413 425.61 227.84 423.329 228.308C420.872 228.599 418.539 229.548 416.576 231.053C413.383 233.907 404.146 245.607 398.578 241.662C398.774 241.249 399.886 240.51 400.103 241.12C400.149 240.47 400.438 239.861 400.913 239.415C402.063 238.663 403.931 237.998 404.253 236.853C405.132 233.406 398.09 238.358 402.636 235.324C403.677 234.267 406.351 232.972 405.904 231.715C407.81 231.037 409.353 229.458 410.577 227.949C412.404 225.238 417.878 221.917 416.767 218.792C418.33 218.236 420.954 217.646 419.425 215.399C420.879 214.538 420.486 215.365 421.202 213.393C421.582 212.528 422.388 211.898 422.819 211.057C424.057 209.587 424.002 207.502 425.03 206.407C425.569 205.871 426.986 205.024 426.769 204.414C426.57 202.768 426.03 203.303 426.949 201.903C427.342 201.076 428.112 197.324 427.881 196.676C427.251 195.87 428.757 191.169 428.811 189.39C428.795 187.292 430.859 186.214 430.283 183.628C432.44 180.757 434.667 178.205 437.288 175.555C440.444 172.715 439.766 174.673 442.874 174.598L443.986 177.724C445.783 176.741 444.437 174.043 443.393 173.04C450.363 170.904 457.029 172.742 463.441 176.043C466.8 177.639 470.159 179.235 472.967 182.058C473.631 183.926 474.997 183.783 475.662 185.651ZM443.14 169.309C440.373 168.532 434.952 170.074 433.532 171.996C431.807 174.026 430.928 177.473 428.216 178.781C428.484 175.552 431.163 173.182 433.098 170.776C431.163 173.182 432.759 169.823 433.098 170.776C432.881 170.166 431.806 170.162 432.251 169.36C434.553 169.915 442.923 164.835 443.126 169.271L443.14 169.309ZM434.753 164.563C435.004 166.234 434.173 166.916 432.61 167.472C432.488 167.129 434.19 162.015 434.753 164.563ZM429.553 155.979C430.326 158.151 431.913 161.408 429.845 163.56C431.227 165.516 432.085 161.046 429.845 163.56C431.105 165.173 431.607 168.516 430.37 169.986C428.911 171.922 427.928 173.989 426.361 175.62C426.795 176.839 426.836 178.886 426.348 179.446C425.11 180.916 425.323 182.601 424.964 184.489C424.7 186.644 424.106 188.959 423.817 191.166C423.75 192.907 423.98 193.555 423.17 195.26C422.35 195.853 422.275 196.609 422.906 197.415C422.926 198.439 421.129 203.286 422.348 202.852C420.697 204.126 420.338 206.014 419.928 207.878C419.46 209.461 418.006 210.322 417.073 211.684C415.151 214.128 414.235 217.588 411.364 219.296C410.788 216.71 413.805 215.294 412.581 212.938C415.49 211.216 414.053 207.176 416.352 205.672C415.81 204.147 415.166 203.303 416.779 202.042C416.884 200.287 417.39 198.69 417.749 196.802C418.665 193.342 419.957 190.091 419.76 186.64C420.388 185.387 421.016 184.133 420.849 182.818C420.961 182.048 420.636 181.134 420.419 180.524C421.029 180.307 421.212 179.855 421.104 179.55C421.623 177.992 422.036 178.188 422.237 176.7C422.413 175.263 423.002 174.023 423.63 172.77C424.294 170.773 427.081 168.708 428.515 166.824C429.434 165.424 427.668 165.408 426.827 164.977C425.658 164.706 425.265 165.533 424.528 166.482C419.718 171.671 418.802 178.995 417.35 185.78C416.777 189.118 416.509 192.348 415.644 195.833C414.556 199.655 413.151 203.675 411.663 207.339C410.245 211.321 409.184 215.22 407.696 218.883C406.258 221.842 404.017 224.357 403.64 227.281C403.478 228.756 401.698 228.702 400.752 230.026C399.185 231.657 398.521 233.654 396.799 234.609C393.547 236.453 389.882 238.1 386.668 239.93C385.859 238.5 387.727 237.836 386.758 236.077C389.161 235.952 388.535 230.206 388.907 228.356C388.995 227.638 390.739 224.571 389.593 224.248C388.837 224.174 387.45 223.293 388.62 223.564C389.033 223.76 391.118 223.706 389.661 222.507C388.261 221.588 388.566 221.479 388.563 219.419C388.671 215.86 388.939 212.63 388.451 209.326C387.879 205.665 388.236 201.717 387.944 197.999C387.677 194.23 386.972 190.316 387.437 186.672C387.511 185.916 387.418 178.65 386.051 178.792C387.363 176.565 386.035 172.83 385.581 170.587C384.9 166.621 385.047 163.048 385.06 159.222C385.023 156.101 383.833 150.943 386.258 148.706C391.177 143.822 398.184 144.808 404.151 143.716C407.812 143.144 410.866 144.849 414.032 145.784C417.188 146.808 421.073 147.831 423.822 149.644C424.757 150.342 425.313 151.905 426.3 152.627C428.584 154.219 428.818 153.792 429.591 155.965L429.553 155.979ZM382.575 155.254C383.223 155.024 383.549 155.938 383.352 156.352C382.596 156.277 382.074 155.776 382.575 155.254ZM381.09 164.842C383.459 163.656 381.178 160.26 382.758 158.667C383.066 164.483 384.327 169.96 383.987 176.006C383.933 177.786 384.868 178.483 384.814 180.263C384.638 181.7 384.742 183.08 384.566 184.516C384.616 187.676 385.301 190.567 385.267 193.369C383.467 192.292 384.42 188.089 384.182 186.456C383.631 183.818 383.163 181.537 382.892 178.843C382.532 176.867 382.87 164.896 381.09 164.842ZM388.248 144.52C386.38 145.185 381.783 145.059 382.773 147.842C383.315 149.366 382.267 149.438 383.261 151.146C383.905 151.99 383.691 153.44 383.725 154.502C383.115 154.719 383.148 151.916 381.104 154.017C380.368 154.966 380.389 155.989 380.531 157.355C378.483 160.531 379.202 164.483 379.347 167.91C379.512 176.223 381.763 184.483 382.66 192.923C383.022 196.959 384.141 201.069 383.08 204.968C382.56 206.526 382.163 208.428 382.095 210.169C382.163 212.292 381.414 213.203 381.017 215.104C379.833 218.66 378.149 222.737 377.697 226.418C377.592 228.173 376.781 229.878 375.473 231.031C375.577 232.41 374.683 233.759 374.055 235.013C373.245 236.718 372.459 238.371 372.671 240.056C371.255 240.903 370.431 242.571 369.62 244.276C368.487 247.126 366.03 249.031 364.738 252.281C364.232 253.878 362.256 254.237 361.68 255.515C361.161 257.074 359.259 256.677 357.5 257.646C354.947 259.284 351.411 262.259 352.4 265.042C350.424 265.401 349.83 267.716 349.349 269.261C349.257 271.054 347.911 272.22 346.922 273.302C344.447 276.243 341.755 278.575 338.141 280.246C336.883 280.694 335.32 281.25 333.845 281.087C332.625 281.521 332.09 280.981 332.388 279.888C332.015 277.874 333.578 277.318 334.206 276.064C334.795 274.824 333.663 274.539 335.066 273.654C336.216 272.902 333.575 271.393 333.358 270.784C335.138 270.838 334.474 268.97 336.037 268.414C335.928 268.109 335.515 267.913 335.101 267.716C336.949 266.029 339.031 260.05 336.39 258.542C338.258 257.877 338.021 256.244 338.222 254.756C338.289 253.014 338.289 253.014 337.733 251.452C337.361 249.437 339.1 247.445 338.327 245.272C337.785 243.748 339.114 240.484 338.755 238.508C338.321 237.288 338.789 235.705 339.403 234.413C340.119 232.441 338.664 233.302 338.535 231.974C339.721 230.478 338.682 228.401 339.271 227.161C339.79 225.602 339.54 223.931 338.482 222.89C339.573 221.128 339.79 221.738 338.923 219.298C338.245 217.393 338.046 215.746 337.686 213.77C336.213 206.608 336.603 199.857 334.895 193.122C334.352 191.598 334.75 189.696 333.997 188.547C332.807 187.253 334.39 187.72 333.543 186.304C333.313 185.656 332.377 184.958 332.161 184.348C331.713 183.09 332.303 181.85 331.747 180.287C328.71 173.682 326.602 166.789 323.674 160.488C321.786 156.265 319.739 152.441 317.902 148.243C316.377 144.921 314.34 142.21 312.815 138.888C310.847 135.323 309.473 131.461 308.748 127.454C308.48 125.973 308.42 124.463 308.569 122.966C308.806 120.735 310.202 122.729 310.816 121.437C310.633 121.888 310.403 121.24 310.294 120.935C309.447 119.519 307.349 119.536 306.355 117.828C307.918 117.272 310.328 118.133 310.471 119.499C310.294 120.935 313.766 121.762 314.911 122.084C316.813 122.481 325.976 120.596 326.302 121.511C328.404 120.42 330.268 120.831 332.479 120.044C334.003 119.502 336.214 118.716 337.563 119.61C339.774 118.824 342.469 118.552 344.764 118.122C347.496 117.837 348.323 118.23 350.981 118.702C352.113 118.986 353.175 118.952 354.306 119.237C354.971 121.104 355.192 120.639 357.202 121.341C359.174 122.057 360.974 123.134 362.287 124.771C363.039 125.921 363.778 127.032 364.225 128.29L362.319 128.968C360.255 130.045 361.027 132.218 360.96 133.959C360.485 144.675 361.912 155.39 365.173 165.608C365.716 167.133 365.838 167.476 365.357 169.021L366.793 173.061C367.566 175.234 367.582 177.332 367.745 179.721C367.769 183.9 367.489 188.075 366.906 192.214C366.764 194.712 366.584 197.223 366.733 199.575C365.116 201.91 365.347 202.558 365.58 205.266C365.871 208.984 365.623 213.237 363.162 216.216C362.426 217.165 361.938 217.725 362.372 218.945C361.419 219.284 360.574 219.928 359.768 220.558C358.473 221.748 357.832 222.964 356.5 224.168C355.459 225.225 349.838 232.119 351.434 232.624C352.675 233.214 353.77 230.377 354.614 229.733C356.031 228.886 357.415 227.706 357.774 225.818C358.185 223.955 357.11 223.951 359.138 223.616C359.748 223.399 360.357 223.182 360.54 222.73C362.426 221.029 363.666 221.619 362.677 218.836C364.24 218.28 364.704 214.637 366.396 215.41C364.67 213.576 366.701 211.437 367.003 209.268C366.987 207.17 368.078 205.408 368.367 203.202C368.651 202.07 369.299 201.839 368.204 200.812C367.574 200.006 368.527 199.667 369.028 199.145C370.055 198.05 368.364 197.277 369.622 196.83C370.88 196.383 369.784 195.355 369.872 194.637C369.978 192.882 370.893 192.556 370.215 190.651C370.016 189.004 369.26 188.929 370.192 187.567C370.877 186.594 369.959 180.995 369.525 179.775C369.145 176.776 369.021 174.373 368.679 171.36C368.404 169.74 368.482 167.909 367.292 166.615C366.54 165.466 367.276 164.517 366.842 163.297C366.469 161.283 364.974 160.097 364.958 157.999C364.829 156.671 365.418 155.431 365.276 154.065C365.26 151.966 364.304 150.245 363.748 148.683C364.033 147.551 363.891 146.185 363.786 144.805C363.407 141.805 363.027 138.806 363.417 135.919C363.83 132.251 366.041 131.465 369.601 131.573C372.456 131.631 375.293 132.726 377.31 134.413C376.425 136.875 373.821 138.488 373.017 141.178C372.62 143.08 371.217 143.965 370.698 145.524C370.378 146.822 370.275 148.165 370.393 149.497C370.613 152.166 371.203 154.791 371.835 157.657C373.425 169.973 375.348 184.317 373.378 196.524C372.872 198.121 372.475 200.023 372.102 201.873C371.726 204.798 371.692 207.601 370.705 210.743C370.111 213.058 369.43 216.091 368.118 218.318C366.792 220.507 367.151 222.483 366.144 224.602C363.184 230.163 359.862 235.552 356.901 241.114C356.287 242.405 354.765 245.008 354.799 246.069C354.623 247.506 353.991 249.834 353.198 250.503C352.378 251.095 351.496 255.617 353.795 254.112C354.931 253.322 356.243 251.094 356.223 250.071C357.188 246.436 358.826 243.014 361.051 239.981C361.875 238.314 361.549 237.4 362.787 235.929C363.973 234.434 363.756 233.824 363.581 232.126C366.059 231.244 367.175 229.431 368.049 227.059C368.859 225.354 368.626 222.646 370.602 222.286C370.44 219.897 371.86 217.975 371.819 215.928C371.837 214.891 372.912 211.031 374.353 210.132C374.441 209.414 373.722 209.326 373.397 208.411C373.668 207.241 374.244 205.963 374.58 204.856C375.332 202.141 375.404 199.325 374.866 196.725C376.734 196.061 375.907 191.804 376.083 190.367C376.6 178.195 375.583 166.006 373.057 154.088C372.352 150.174 371.725 144.429 376.197 142.151C378.21 141.682 380.283 141.524 382.343 141.683C388.394 140.948 386.346 144.123 388.248 144.52ZM307.806 127.703C308.077 130.397 308.958 132.875 310.341 134.83C308.382 134.153 307.664 130.201 306.39 128.55C304.555 126.412 302.111 124.49 300.512 121.924C301.156 122.769 302.003 124.185 300.512 121.924C300.295 121.314 300.404 121.619 300.512 121.924C299.518 120.217 298.745 118.044 298.081 116.177C299.251 116.447 298.441 118.153 300.186 117.145C300.726 116.61 300.814 115.892 301.767 115.553C303.956 116.878 305.77 117.993 307.787 119.68C309.075 121.369 307.376 125.408 307.806 127.703ZM315.788 146.161C316.005 146.771 315.374 145.964 315.266 145.659C315.462 145.246 315.984 145.747 315.788 146.161ZM334.598 251.45C334.833 251.023 335.138 250.915 335.443 250.807C336.29 252.223 335.768 251.721 334.598 251.45C335.05 251.633 335.05 251.633 334.598 251.45ZM329.622 187.956C329.798 186.519 329.906 186.824 329.256 184.995C327.371 179.697 326.111 174.22 324.436 168.546C323.447 165.764 322.566 163.287 320.966 160.721C320.214 159.572 319.814 159.413 320.085 158.243C320.356 157.074 318.933 156.936 318.594 155.983C318.255 155.03 318.235 154.007 317.604 153.2C316.509 152.173 316.852 152.051 316.615 150.418C316.493 150.075 314.53 146.608 315.808 147.184C320.591 156.647 326.322 166.845 327.636 177.542C327.744 177.847 326.935 172.553 327.636 177.542C328.087 177.725 328.392 177.616 328.697 177.508C328.32 180.433 328.612 184.15 330.516 186.607C331.052 187.147 332.635 187.614 331.594 188.672C331.093 189.193 330.896 189.607 331.431 190.146C331.953 190.648 332.994 189.59 333.428 190.81C331.255 191.583 332.012 191.657 332.512 194.27C332.923 196.271 333.16 197.904 333.468 199.856C333.724 202.067 334.479 204.192 335.677 206.069C335.61 207.81 335.251 209.698 335.158 211.492C335.091 213.233 337.226 216.338 336.941 217.47C336.435 219.067 336.022 218.87 336.368 220.808C336.707 221.761 337.608 225.262 337.177 226.102C336.798 226.967 335.987 228.672 337.733 227.665C336.208 228.207 336.407 233.718 337.627 233.284C336.516 234.023 337.56 235.026 337.594 236.087C337.506 236.805 336.966 237.341 336.573 238.168C336.264 239.351 337.434 239.622 336.406 240.717C335.905 241.239 336.013 241.544 336.122 241.849C336.786 243.717 336.389 245.618 335.978 247.482C335.334 250.502 335.727 249.675 332.981 249.922C335.083 248.83 334.738 246.892 334.83 245.099C334.722 244.794 335.386 242.798 334.667 242.71C334.254 242.513 334.057 242.927 333.823 243.354C333.301 242.852 332.243 241.811 332.528 240.68C333.176 240.449 334.972 242.601 335.064 240.808C335.152 240.09 334.414 238.978 335.633 238.545C333.736 237.073 335.061 234.884 334.824 233.251C334.573 231.579 333.424 232.332 334.356 230.97C334.858 230.448 334.971 229.678 335.072 228.998C335.038 227.936 334.48 220.449 333.222 220.897C334.138 217.436 333.846 213.719 332.626 210.288C333.776 209.536 333.22 207.973 332.59 207.167C331.704 205.764 332.142 205.909 332.21 204.167C332.352 201.669 330.536 198.494 331.434 196.071C330.377 195.03 329.311 196.139 328.2 196.877C327.5 196.302 327.018 195.503 326.834 194.615C326.651 193.727 326.778 192.803 327.194 191.997C327.515 193.986 328.719 195.319 330.682 194.921C330.77 194.203 331.289 192.644 330.302 191.922L329.889 191.725C329.692 192.139 329.044 192.369 329.279 191.942C329.476 191.529 329.584 191.834 329.889 191.725L330.194 191.617C330.625 190.777 329.347 190.201 328.811 189.661C328.594 189.051 329.618 189.031 329.635 187.994L329.622 187.956ZM326.096 185.045C326.74 185.89 326.943 186.461 326.455 187.021C327.3 186.377 325.398 185.98 325.629 186.628C324.659 184.869 324.585 181.761 324.639 179.982C326.134 181.167 325.249 183.629 326.096 185.045ZM332.515 244.506C332.637 244.849 332.402 245.276 331.792 245.493C331.684 245.188 331.867 244.736 332.515 244.506ZM334.903 255.206C335.032 256.534 335.177 259.961 332.767 259.1C334.832 258.023 332.387 256.101 334.903 255.206ZM331.921 246.821C332.463 248.345 330.537 251.864 332.534 252.528C330.469 253.606 331.509 255.683 331.493 257.45C331.584 258.791 330.56 258.812 331.923 259.744C332.896 260.428 333.648 261.578 333.669 262.601C333.669 262.601 330.238 259.957 330.631 262.994C330.651 264.018 332.357 264.828 332.018 263.875C332.865 265.291 330.613 267.896 329.915 268.831C329.678 263.333 330.432 257.484 329.171 252.007C330.09 250.606 330.304 249.156 330.467 247.682C330.948 246.136 330.663 247.268 331.883 246.834L331.921 246.821ZM287.372 254.979C286.884 255.539 285.789 254.512 285.358 255.352C284.983 255.142 284.874 254.837 284.874 254.837C284.657 254.227 285.247 252.987 284.711 252.448C285.016 252.339 285.664 252.109 286.078 252.305C284.854 253.814 286.62 253.83 287.372 254.979ZM288.204 278.084C288.366 276.609 289.064 275.674 288.631 274.454C288.89 273.976 291.011 277.043 288.19 278.046L288.204 278.084ZM291.689 278.948C292.123 280.168 289.803 280.65 290.359 282.212C289.214 281.89 289.41 281.476 289.715 281.368C289.498 280.758 289.821 279.613 289.139 278.782C289.787 278.551 290.56 280.724 291.689 278.948ZM186.359 96.5294C192.645 95.3673 196.668 98.8312 200.102 103.535C198.035 102.553 196.099 101.095 194.211 100.736C193.777 99.516 192.79 98.7936 191.55 98.2042C190.832 98.1162 183.468 97.2141 186.373 96.5675C187.326 96.2285 191.584 95.4013 186.373 96.5675L186.359 96.5294ZM327.532 236.531C327.769 238.164 327.124 248.183 328.707 248.651C326.618 249.78 328.021 252.759 327.954 254.501C327.31 257.52 329.228 260.016 328.851 262.94C328.695 265.4 328.967 268.095 328.786 270.606C328.782 271.681 327.901 273.068 328.213 273.945C328.986 276.117 327.382 274.627 327.423 276.673C325.48 274.23 324.671 268.936 325.658 265.794C325.977 264.495 326.08 263.153 325.962 261.821C325.693 259.856 326.14 261.114 326.499 259.226C326.032 256.945 325.259 254.772 324.5 252.637C324.249 250.966 324.822 247.628 323.53 247.014C323.008 246.513 322.938 242.33 322.613 241.415C321.067 237.07 321.783 231.234 319.298 227.266C320.255 225.852 319.679 223.266 318.489 221.972C317.845 221.127 317.395 217.809 316.839 216.247C315.077 211.292 314.426 205.598 312.053 200.86C309.464 195.512 309.01 189.404 306.712 183.91C306.062 182.08 304.896 180.735 304.232 178.867C303.689 177.342 303.316 175.328 301.245 175.421C302.167 179.945 305.149 184.466 306.695 188.811C308.132 192.851 309.677 197.196 310.795 201.307C313.351 209.458 315.367 218.144 316.716 226.767C317.057 229.78 317.112 231.864 317.905 235.06C318.66 238.27 319.771 241.395 320.259 244.699C321.52 250.176 322.476 255.762 322.746 261.591C322.712 264.394 321.922 267.122 321.959 270.244C322.101 271.61 322.731 272.416 322.874 273.783C322.894 274.806 322.571 275.951 322.23 276.802C321.928 278.971 322.809 281.448 322.107 283.459C321.086 285.539 322.374 287.228 321.462 289.613C321.265 290.027 320.509 293.817 320.204 293.925C319.556 294.155 319.325 293.507 318.715 293.724C318.031 294.698 319.271 295.287 318.682 296.527C318.298 297.345 318.131 298.247 318.197 299.147C317.786 301.011 316.688 301.788 316.704 303.886C316.528 305.323 314.066 308.302 313.172 309.651C311.639 312.343 309.36 314.87 307.099 316.362C305.95 317.114 305.193 317.039 304.299 318.388C303.271 319.483 302.682 320.724 301.546 321.514C299.576 322.859 297.241 321.242 295.712 322.859C294.617 321.832 292.552 322.909 291.793 320.775C290.61 320.466 286.244 320.988 289.227 318.51C290.535 317.358 292.312 315.352 293.57 314.905C294.523 314.566 295.476 314.227 294.076 313.308C292.797 312.732 294.557 311.763 294.631 311.006C295.652 308.926 295.636 306.828 297.07 304.944C296.263 301.71 297.663 298.764 297.931 295.535C298.417 292.915 296.888 290.668 297.495 288.391C298.247 285.676 296.686 283.097 296.376 280.416C296.035 277.403 295.801 274.695 295.103 271.766C292.344 259.179 289.953 246.418 285.852 233.922C283.534 227.405 282.704 221.087 280.081 214.678C278.518 211.37 278.208 203.494 273.77 202.968C273.575 204.035 273.634 205.132 273.944 206.171C274.254 207.21 274.805 208.161 275.552 208.947C277.183 210.514 277.206 213.597 277.992 215.807C279.755 220.763 282.707 227.012 282.297 232.74C282.011 237.006 287.15 242.521 285.662 246.184C285.034 247.438 285.987 247.099 285.983 248.174C286.091 248.479 284.98 249.218 284.763 248.608C284.424 247.655 285.23 247.025 283.667 247.581C283.794 246.849 284.204 241.121 283.682 240.619C282.39 240.006 282.729 240.958 282.065 239.091C281.401 237.223 282.476 237.227 281.36 235.177C280.377 233.379 279.618 231.245 278.954 229.377C277.856 226.29 277.3 224.727 276.958 221.714C276.721 220.081 275.646 220.077 275.517 218.749C275.623 216.994 275.372 215.322 274.817 213.76C274.064 212.61 272.627 212.434 271.812 211.35C272.657 210.706 272.444 209.022 272.119 208.107C271.78 207.154 271.543 205.521 270.251 204.907C269.316 204.209 269.173 202.843 268.726 201.585C268.184 200.06 268.163 199.037 267.302 197.583C266.638 195.715 266.082 194.152 264.822 192.54C265.608 190.886 264.155 184.748 261.639 185.643C261.548 184.301 263.093 184.782 261.623 183.544C261.101 183.043 260.775 182.128 260.215 181.64C258.724 179.38 257.399 181.569 258.781 183.524C261.497 188.141 262.954 193.204 264.716 198.159C267.898 208.191 271.528 216.346 275.053 226.256C276.042 229.039 276.727 231.93 277.374 234.834C277.699 235.749 280.089 239.45 279.696 240.277C278.472 241.786 282.353 243.883 281.763 245.123C280.952 246.829 281.562 246.612 281.725 249.001C281.834 249.306 281.348 251.926 282.911 251.37L283.311 255.393C283.741 257.688 284.209 259.969 284.358 262.32C284.609 263.991 284.212 265.893 286.208 266.557C288.219 267.259 287.192 261.355 286.51 260.524C288.525 260.151 286.277 257.816 288.145 257.152C288.071 257.908 288.199 259.236 289.419 258.802C288.689 261.06 288.811 263.506 289.761 265.68C290.412 267.509 290.412 267.509 290.161 269.702C289.96 271.19 289.317 270.346 289.872 271.909C290.089 272.519 289.028 272.553 288.811 271.943C287.828 270.145 286.55 273.434 286.028 272.932C285.452 270.346 284.266 267.977 283.188 265.913C282.181 264.168 282.809 262.914 282.754 260.829C281.785 259.07 281.819 260.132 281.351 257.85C281.209 256.484 280.667 254.96 279.806 253.505C278.959 252.089 277.617 252.18 277.793 250.743C277.955 249.269 277.596 247.292 276.013 246.825C275.471 245.3 275.38 240.094 272.671 240.328C272.509 241.802 272.6 243.144 273.695 244.172C272.132 244.727 274.396 249.161 274.83 250.38C275.047 250.99 275.765 254.942 276.483 255.03C275.765 254.942 274.22 250.597 273.589 249.791C271.755 247.652 271.199 246.09 270.027 243.759C268.936 241.656 267.21 239.823 266.451 237.688C265.773 235.782 265.339 234.563 264.262 232.499C259.387 224.829 254.663 216.376 247.636 210.503C247.31 209.588 247.47 206.053 245.907 206.609C245.602 206.718 244.975 207.971 244.491 207.456C244.383 207.151 243.267 205.101 243.61 204.979C244.22 204.762 244.85 205.568 245.46 205.351C245.64 202.84 243.088 200.613 242.207 198.136C241.542 196.268 241.393 193.917 239.922 192.679C238.427 191.493 237.641 189.283 236.037 187.792C237.058 185.712 234.709 184.057 233.74 182.298C229.709 174.48 224.35 167.422 217.904 161.438C213.626 157.377 209.691 153.195 205.216 149.548C201.715 146.586 197.17 142.62 192.637 141.828C190.322 141.235 187.789 140.031 185.488 139.476C183.134 138.896 181.61 139.438 179.487 139.506C174.477 139.184 169.86 138.035 165.171 139.703C166.81 137.868 168.808 136.39 171.042 135.359C173.275 134.329 175.696 133.767 178.156 133.711C180.888 133.426 183.387 133.568 186.203 133.64C187.265 133.606 190.967 135.08 189.742 132.724C191.532 134.68 193.972 135.918 196.607 136.208C198.96 136.788 201.475 139.028 203.58 139.997C204.336 140.072 203.706 139.265 204.316 139.048C205.486 139.319 206.764 139.895 207.675 140.645C209.597 142.065 211.214 143.594 212.78 145.098C220.885 153.035 227.138 163.735 232.151 173.846C235.065 180.109 238.824 185.728 241.987 191.601C244.576 196.949 247.091 203.054 250.976 207.941C252.88 210.398 254.714 212.537 256.009 215.21C256.456 216.468 257.988 220.775 259.531 219.196C260.68 218.444 255.27 210.235 254.531 209.124C253.04 206.863 251.619 204.921 250.363 202.233C249.139 199.878 247.216 198.458 246.322 195.942C243.943 190.219 240.73 185.05 237.798 179.824C236.09 176.953 230.409 169.914 231.795 166.931C232.227 166.09 228.359 160.167 227.569 159.031C226.383 156.662 225.196 154.293 223.705 152.032C222.285 150.09 219.658 148.62 218.275 146.664C217.175 144.753 215.628 143.138 213.766 141.956C210.185 138.868 206.288 136.167 202.14 133.897C195.82 130.149 188.57 128.262 181.224 128.455C178.821 128.579 178.441 125.58 176.519 124.16C180.707 123.014 184.567 124.088 188.574 125.454C191.022 126.301 192.777 126.407 194.896 127.413C195.869 128.098 199.517 127.487 197.608 126.105C193.984 123.534 189.855 121.762 185.494 120.907C181.133 120.052 176.64 120.134 172.313 121.147C172.961 117.053 178.832 118.829 181.835 117.374C185.158 115.849 190.531 117.072 193.782 118.364C197.375 119.533 200.768 122.191 204.544 122.909C208.748 123.861 212.141 126.519 215.558 129.125C222.229 134.84 227.774 141.751 231.909 149.501C235.797 156.448 240.972 165.084 241.748 173.181C244.155 171.981 242.535 168.392 241.871 166.525C243.166 169.199 244.657 171.459 245.951 174.133C247.029 176.197 247.3 178.892 248.378 180.956C248.812 182.176 250.103 182.789 250.646 184.314C250.985 185.267 251.323 186.22 251.94 186.988L254.439 190.994C256.811 195.732 259.488 200.362 262.508 204.87C264.037 207.117 265.528 209.377 267.324 211.53C267.663 212.482 267.704 214.529 269.193 214.729C268.725 212.448 267.844 209.971 266.752 207.869C265.345 205.965 264.681 204.097 263.908 201.924C263.136 199.752 262.072 197.726 261.947 195.323C260.316 193.756 259.252 191.73 258.283 189.971C257.327 188.25 256.751 185.664 254.937 184.548C253.659 183.972 253.392 180.203 252.85 178.678C252.077 176.506 250.999 174.442 249.922 172.378C248.806 170.327 247.139 169.503 246.989 167.152C246.921 165.029 244.942 163.328 244.78 160.939C243.628 159.631 242.857 159.518 242.55 157.567C242.211 156.614 241.872 155.661 241.217 154.906C240.14 152.842 239.17 151.083 238.506 149.215C238.072 147.996 235.113 146.558 235.177 145.891C235.147 143.755 232.825 142.176 231.551 140.526C229.717 138.387 227.774 135.943 226.283 133.683C224.9 131.727 223.409 129.467 221.684 127.633C221.162 127.132 217.478 124.621 218.969 126.881C205.854 118.621 192.396 110.484 176.154 114.199C176.459 110.227 185.046 109.62 187.633 109.044C191.013 108.528 196.362 109.803 199.454 111.494C203.017 113.662 207.43 114.239 209.915 118.208C211.995 119.228 213.416 121.17 215.033 122.699C217.134 124.743 216.491 123.898 218.467 123.539C214.19 116.344 205.6 111.026 197.891 108.186C193.362 106.319 188.996 106.841 184.291 106.41C182.047 106.135 178.633 106.319 177.213 108.241C176.477 109.19 176.066 111.053 174.738 111.182C175.524 109.529 176.334 107.823 176.854 106.265C178.074 105.831 179.636 105.275 180.786 104.523C183.498 103.215 184.284 101.561 187.309 101.13C191.829 101.025 196.284 102.229 200.136 104.597C201.841 105.407 201.916 104.651 203.081 105.996C204.177 107.024 205.112 107.722 206.085 108.406C208.288 109.769 209.804 111.978 212.031 113.29C215.607 115.496 223.227 119.055 224.125 123.63C224.484 125.606 226.82 127.223 227.775 128.944L232.325 135.699C233.707 137.655 236.26 139.881 236.811 142.519C237.388 145.105 241.198 146.884 242.764 148.388C244.272 149.612 245.906 153.239 246.557 155.068C247.777 158.499 249.166 161.44 250.691 164.762C251.807 166.812 257.27 180.241 260.664 175.899C259.338 174.224 257.233 173.255 256.765 170.974C256.458 169.022 255.45 167.277 253.871 165.734C252.254 164.206 252.021 161.498 251.37 159.668C250.598 157.496 249.52 155.431 248.099 153.489C253.798 155.627 257.302 164.514 259.821 169.544C260.668 170.96 262.23 177.403 264.436 177.692C265.498 177.658 266.612 182.843 267.28 183.636C269.691 184.496 270.066 188.571 271.035 190.33C272.781 193.187 275.456 195.756 275.601 199.183C276.771 199.454 276.679 201.247 277.652 201.931C278.587 202.629 279.109 203.13 279.753 203.975C280.869 206.025 282.36 208.286 283.241 210.764L285.437 216.938C285.884 218.196 287.163 218.772 287.61 220.03C289.135 223.352 289.694 226.974 290.9 230.367C291.89 233.149 294.368 236.132 294.747 239.132C295.323 241.717 296.476 243.025 296.835 245.001C297.194 246.977 298.468 248.628 298.814 250.566L299.515 255.555C299.874 257.531 301.383 258.755 301.277 260.51C301.42 261.877 301.332 262.595 302.07 263.706C303.358 265.395 302.229 267.171 302.575 269.109C302.717 270.475 303.151 271.695 303.707 273.257C304.588 275.735 305.88 276.349 303.886 277.745C304.859 278.429 305.865 283.31 305.147 283.222C307.105 283.899 306.766 286.811 306.909 288.177C307.126 288.787 308.705 290.329 308.709 289.254C308.797 288.536 307.932 288.156 308.363 287.316C309.282 285.916 307.448 283.777 307.014 282.557C307.177 281.083 307.608 280.242 307.174 279.023C306.619 277.46 305.954 275.592 306.022 273.851C305.771 272.18 305.019 271.03 305.233 269.58L305.05 266.167C304.474 263.581 304.006 261.3 303.125 258.823C302.135 256.04 301.489 253.136 301.095 250.098C301.075 249.075 301.398 247.93 300.716 247.099C300.194 246.598 299.584 246.815 299.259 245.9C300.625 245.757 297.117 237.945 296.778 236.992C294.948 233.779 294.891 229.634 292.514 225.971C290.576 222.453 290.79 217.138 289.367 213.136C287.93 209.096 285.736 204.981 283.163 201.731C276.938 193.491 271.562 184.643 267.115 175.322C265.82 172.648 264.634 170.279 263.645 167.497C262.892 166.347 262.244 166.578 261.702 165.053C261.668 163.992 261.16 163.529 260.319 163.098C257.193 160.345 256.526 156.417 254.062 153.473C252.374 151.625 250.344 149.9 248.656 148.053C246.931 146.219 245.853 144.155 243.246 143.708C242.056 141.837 240.308 140.386 238.25 139.56C236.924 137.885 235.968 136.164 234.586 134.208C232.013 130.958 230.576 126.918 228.308 123.56C226.064 120.15 223.065 116.665 220.295 113.829C216.946 110.464 212.817 107.98 208.276 106.596C207.178 103.509 203.458 103.072 202.557 99.5708C199.503 97.8661 197.029 93.8082 193.361 93.3953C190.126 94.2021 188.238 93.8431 186.065 94.6159C185.417 94.8464 182.834 97.4827 183.787 97.1438C182.529 97.5912 179.329 99.4593 178.506 97.9915C178.556 97.2867 180.983 93.246 181.537 92.7487C182.221 91.7754 188.398 86.4441 189.388 89.2266C189.835 90.4844 195.714 90.111 195.998 88.9793C196.592 86.6642 201.243 85.0102 203.504 83.5191C206.342 81.479 209.326 79.001 212.756 77.7809C214.281 77.2386 216.404 77.1705 217.987 77.6379C218.234 80.384 218.43 79.9706 220.967 80.0991C221.685 80.1871 222.099 80.3836 222.729 81.1899C223.682 80.8509 224.414 80.9771 225.475 80.943C226.498 80.9226 227.668 81.1935 228.838 81.4644C230.289 81.6785 231.872 82.1459 233.557 81.9331C234.099 83.4577 235.231 83.7422 236.706 83.9047C239.364 84.3761 241.072 87.2466 243.909 88.3415C247.397 95.1302 252.41 101.377 257.84 106.744C258.484 107.589 265.08 114.303 264.775 114.411C262.209 116.011 265.873 117.499 266.968 118.526C267.904 119.224 268.154 120.895 269.408 121.522C270.673 122.06 270.707 123.121 271.568 124.576C272.415 125.992 273.96 126.473 275.649 125.185C276.401 126.334 277.68 126.91 278.127 128.168C278.127 128.168 274.425 126.694 276.221 128.846C276.221 128.846 276.797 131.432 276.601 131.845C278.164 131.29 278.632 133.571 279.262 134.377C280.319 135.418 278.401 136.787 280.055 137.573C280.895 138.004 281.652 138.078 281.329 139.223C281.654 140.138 282.282 138.885 282.946 140.752C283.38 141.972 282.874 143.569 283.956 144.558C285.014 145.599 287.01 146.263 286.308 148.273C285.592 150.245 287.386 150.337 288.535 149.585C288.362 153.081 291.664 154.397 291.935 157.092C292.134 158.738 293.033 160.179 293.481 161.437L296.589 161.362C296.229 159.386 295.258 155.566 292.796 154.682C292.759 151.56 290.6 148.507 289.109 146.246C287.313 144.094 286.431 141.617 285.207 139.261C284.021 136.892 281.581 133.895 281.005 131.31C289.426 139.387 296.792 148.496 302.928 158.42C304.623 161.252 306.382 164.147 307.602 167.578C308.362 169.712 310.049 171.56 310.517 173.841C311.452 178.403 314.669 182.497 316.323 187.147C319.868 198.08 321.094 209.495 324.652 220.466C325.533 222.944 325.461 225.76 326.146 228.651C326.417 231.346 326.993 233.932 327.532 236.531ZM172.513 126.658C174.489 126.299 175.749 127.911 177.15 128.83C173.482 128.417 170.81 131.772 167.251 131.664C167.088 129.275 170.18 127.101 172.513 126.658C174.489 126.299 170.071 126.797 172.513 126.658ZM173.165 141.411C180.941 142.51 187.559 143.247 194.203 147.196C193.362 146.765 193.789 147 194.203 147.196C197.708 149.084 202.237 150.951 205.433 154.022C200.782 151.812 196.037 149.335 190.772 148.417C188.745 145.617 184.212 144.824 181.07 143.838C176.722 142.291 172 142.139 167.561 143.404C164.937 143.994 162.351 144.57 159.53 145.574C158.114 146.421 157.377 147.37 155.706 147.62C157.303 144.262 161.077 142.92 164.724 142.309C166.161 142.485 172.989 142.848 173.165 141.411ZM253.176 232.963C254.129 232.624 254.238 232.929 254.577 233.882C253.732 234.526 253.502 233.878 253.176 232.963ZM266.87 249.733C265.847 249.754 264.948 248.313 264.514 247.093C265.271 247.168 266.85 248.71 266.857 249.695L266.87 249.733ZM278.665 272.03C280.119 271.17 282.383 279.467 283.122 280.578C282.383 279.467 281.396 278.745 280.339 277.704C281.43 275.942 279.221 273.593 278.665 272.03ZM290.676 305.801C290.513 307.276 288.415 307.292 287.787 308.546C287.333 306.303 289.524 304.493 288.103 302.551C290.009 301.873 288.785 299.518 288.789 298.443C290.548 297.474 290.385 295.084 290.561 293.647C291.318 293.722 290.873 298.388 291.822 299.124C290.456 299.267 290.89 300.486 291.534 301.331C289.435 301.347 289.869 306.431 290.676 305.801ZM166.051 153.044C172.649 152.758 181.232 153.227 186.52 157.228C188.964 159.15 192.144 160.123 193.852 162.993C195.234 164.949 199.079 167.789 201.896 167.861C202.51 166.569 199.564 165.169 198.934 164.363C197.454 162.5 195.69 160.881 193.707 159.567C189.971 157.031 185.944 154.642 182.063 152.545C180.263 151.467 178.09 152.24 176.188 151.843C173.848 151.301 173.134 150.138 170.706 150.315C168.011 150.586 167.849 148.197 165.371 149.078C163.052 149.559 160.574 150.441 158.475 150.457C170.24 141.035 185.541 148.56 197.155 153.446C200.101 154.845 202.85 156.659 205.883 157.34C207.358 157.503 207.988 158.309 209.389 159.228C210.629 159.817 210.236 160.644 211.293 161.685C212.28 162.407 212.585 162.299 213.324 163.41C214.076 164.559 215.354 165.135 216.45 166.163C218.537 168.168 220.171 171.795 222.113 174.239C223.265 175.546 224.248 177.344 224.79 178.868C225.455 180.736 226.733 181.312 227.702 183.071C229.41 185.941 229.79 188.941 231.854 191.727C233.007 193.035 233.976 194.794 233.617 196.682C234.66 197.685 235.216 199.248 235.758 200.772C236.436 202.678 238.128 203.451 238.436 205.402C238.883 206.66 239.66 207.758 240.717 208.798C243.073 211.438 246.039 213.861 248.517 216.845C250.835 219.498 252.473 222.05 254.594 225.117C258.71 230.652 262.966 236.824 265.27 243.303C263.725 242.823 262.322 239.844 261.227 238.816C259.539 236.969 258.767 234.797 257.163 233.306C252.471 229.049 248.954 223.988 244.472 219.357C241.116 215.956 239.209 211.439 236.71 207.433C235.219 205.172 233.69 202.925 232.542 200.542C231.535 198.797 231.051 194.418 228.979 194.51C229.088 190.951 226.874 189.677 225.261 187.074L224.271 184.291C223.75 183.79 223.119 182.983 222.241 182.566L220.011 179.194C218.764 176.954 217.197 174.908 215.36 173.12C213.381 171.419 212.588 168.223 210.252 166.606C211.529 174.181 218.502 177.97 221.773 184.149C222.729 185.87 223.393 187.738 223.949 189.301C224.491 190.825 225.745 191.453 226.287 192.977C227.511 195.333 227.365 198.906 230.114 200.719C230.589 203.985 232.398 206.175 234.449 208.924C236.584 212.029 238.279 214.861 240.648 217.539C242.896 219.874 243.994 222.962 246.451 224.921C248.055 226.412 249.564 227.636 250.215 229.465C250.662 230.723 251.096 231.943 252.153 232.984L250.247 233.662C252.047 234.739 252.352 238.495 255.135 237.505C254.383 240.22 257.132 238.169 258.532 239.088C258.769 240.721 257.742 241.816 259.213 243.054C260.599 243.934 261.352 245.084 262.199 246.5C263.26 246.466 262.827 245.246 263.653 245.639C264.406 246.788 263.152 246.161 262.345 246.791C262.793 248.049 263.277 248.564 264.25 249.248C265.199 249.984 265.328 251.312 266.08 252.462C267.501 254.404 269.188 256.251 270.679 258.512L275.432 265.838C276.415 267.635 278.859 269.557 278.557 271.726C277.032 272.268 275.211 266.303 274.276 265.605C272.34 264.147 270.883 262.948 269.462 261.005C268.832 260.199 268.201 259.393 267.056 259.07C265.168 258.711 266.103 259.409 265.259 260.053C266.584 261.728 269.211 263.199 270.072 264.653C270.506 265.873 271.242 264.924 272.103 266.378C272.842 267.489 273.167 268.404 274.224 269.445C274.963 270.556 281.756 280.721 279.888 281.385C280.177 279.179 278.288 278.82 276.926 277.887C276.111 276.803 276.045 275.41 274.855 274.115C273.021 271.977 267.486 265.229 264.774 266.537C264.828 264.758 260.947 262.66 259.743 261.328C258.164 259.785 256.493 260.036 254.997 258.851C252.967 257.126 251.171 254.973 248.442 254.183C245.994 253.337 245.113 250.859 242.1 251.201C242.981 253.678 246.662 254.129 248.445 256.243C249.662 257.614 250.92 257.166 252.072 258.474C253.224 259.782 254.587 260.714 256.292 261.525C257.984 262.297 258.736 263.446 260.231 264.632C261.702 265.869 263.177 266.032 264.381 267.364C266.698 270.018 269.251 272.244 271.925 274.814C275.969 279.301 279.118 285.137 281.524 290.936C283.036 294.22 284.778 298.152 284.656 301.673C284.55 303.428 284.191 305.316 284.747 306.879C283.075 307.13 281.817 307.577 280.668 308.33C279.916 307.18 280.774 306.575 281.567 305.906C279.662 303.449 280.235 300.111 278.819 297.094C278.06 294.959 274.877 288.062 272.562 287.469C269.955 287.022 269.451 281.619 266.684 280.843C265.101 280.376 261.362 275.78 260.088 274.129C258.814 272.478 257.301 272.33 256.478 270.862C255.199 269.169 253.799 267.572 252.288 266.083C249.435 262.89 246.557 259.749 243.36 256.678C241.757 255.187 240.248 253.963 239.475 251.791C238.811 249.923 237.035 248.794 235.737 247.195C234.917 245.361 233.627 243.775 231.998 242.599C231.781 241.99 232.321 241.454 231.982 240.501C230.792 239.207 229.755 239.189 228.761 237.482C228.205 235.919 227.148 234.878 225.996 233.571C225.243 232.421 224.466 231.324 224.559 229.53C223.82 228.419 223.084 229.368 223.711 228.114C223.983 226.944 220.44 221.935 219.271 221.664C217.82 221.45 216.051 215.51 214.763 213.821C213.878 212.419 213.679 210.772 212.584 209.745C212.048 209.205 211.526 208.704 210.77 208.629L209.78 205.847C207.733 202.024 204.855 198.882 202.809 195.059C199.246 189.027 195.169 183.478 187.101 182.526C187.643 184.051 189.728 183.996 191.311 184.464C192.87 184.983 194.073 186.315 195.226 187.623C198.009 190.497 200.385 194.16 202.127 198.092C203.205 200.156 204.93 201.99 205.956 204.03C206.977 205.813 207.933 207.534 209.207 209.185C210.628 211.127 211.563 211.825 212.444 214.303C213.217 216.475 214.186 218.235 214.959 220.407C218.989 228.72 223.229 236.658 228.567 243.82L232.778 249.621C234.14 250.554 234.98 250.985 235.631 252.814C237.608 256.319 240.79 259.352 243.451 261.884C245.335 263.318 246 265.185 247.42 267.127C248.159 268.239 249.596 268.415 250.373 269.512C252.634 271.885 253.999 274.878 257.179 275.851C257.843 277.718 259.23 278.599 260.739 279.823C261.782 280.826 261.778 281.901 263.179 282.82C265.815 284.893 268.114 287.364 269.992 290.143C272.165 293.235 274.649 297.203 275.856 300.595C276.733 304.147 274.58 305.943 272.512 308.096C271.204 309.248 270.38 310.915 268.582 311.898C267.18 312.783 266.193 312.061 264.521 312.312C262.132 312.475 257.912 309.424 255.83 311.539C255.972 312.905 259.202 313.173 259.959 313.248C259.744 314.698 253.165 313.947 251.981 313.637C250.436 313.157 248.121 312.563 246.612 311.339C245.677 310.641 244.778 309.201 243.375 310.086C243.145 309.438 245.318 308.665 243.612 307.855C241.654 307.177 241.65 308.252 240.032 306.724C239.402 305.917 238.575 305.524 237.622 305.863C237.392 305.215 236.87 304.714 236.335 304.174C235.399 303.477 234.229 303.206 233.561 302.413C232.273 300.724 230.654 301 229.989 299.132C228.238 298.366 226.652 297.268 225.318 295.898C224.006 294.261 222.097 292.879 220.518 291.337C220.071 290.079 219.136 289.381 217.895 288.792C216.741 286.755 215.969 284.582 214.085 283.148C213.346 282.037 213.617 280.867 212.865 279.718L209.031 274.855C208.17 273.401 208.224 271.622 207.269 269.9C206.191 267.836 205.025 266.49 204.449 263.904C203.873 261.318 202.181 260.546 201.409 258.374C200.636 256.201 200.62 254.103 199.504 252.052C198.765 250.941 198.857 249.148 198.189 248.355C195.119 244.552 197.887 254.388 198.212 255.303C198.429 255.912 200.151 258.821 200.151 258.821C198.843 259.973 200.388 260.454 200.93 261.979C202.042 265.104 203.788 267.961 205.923 271.066C206.77 272.482 206.533 274.713 207.577 275.716C208.099 276.218 208.566 278.499 208.871 278.39C210.041 278.661 211.604 278.105 210.061 279.684C208.837 281.193 211.749 281.532 211.98 282.18C212.413 283.399 211.912 283.921 212.664 285.07C213.186 285.572 213.816 286.378 214.047 287.026C215.237 288.32 216.084 289.736 216.945 291.191C217.806 292.645 218.976 292.916 220.071 293.943C221.115 294.946 220.162 295.285 221.562 296.204C222.389 296.597 223.216 296.99 223.972 297.064C226.396 297.963 226.717 303.816 229.396 301.447C230.202 300.817 228.68 303.419 228.876 303.006C229.52 303.85 230.582 303.816 231.325 303.852C231.664 304.805 232.185 305.307 232.829 306.151C233.351 306.652 235.239 307.011 234.822 307.89C234.625 308.303 234.429 308.717 234.951 309.218C236.141 310.512 237.988 308.825 239.606 310.353C240.758 311.661 242.355 312.166 243.608 312.794C240.286 314.319 237.307 311.858 234.052 311.641C232.31 311.574 230.28 309.849 229.076 308.516C227.497 306.974 228.229 307.1 229.256 306.005C228.179 303.941 225.053 305.053 223.144 303.67C221.208 302.212 220.074 299.868 218.114 298.461C217.07 297.458 217.07 297.458 216.514 295.895C216.189 294.98 215.274 295.306 214.592 294.475C212.992 291.909 211.698 289.235 209.99 286.365C206.936 280.796 204.665 275.378 202.259 269.578C199.815 263.792 196.629 258.699 193.575 253.13C190.521 247.561 186.077 242.916 183.366 237.225C182.122 234.801 180.595 232.534 178.817 230.47C176.912 228.013 175.726 225.644 174.075 223.054C172.781 220.38 170.985 218.228 169.056 215.823C167.138 213.327 166.039 210.24 163.792 207.905C160.575 203.811 156.769 197.092 151.535 195.175C152.925 198.116 155.992 199.859 157.935 202.302C159.839 204.76 161.063 207.115 163.164 209.159C167.659 213.829 169.024 220.685 173.215 225.464C177.258 229.951 179.359 235.859 182.474 240.634C185.579 245.498 189.426 250.398 191.748 255.841C194.154 261.641 197.475 267.115 199.563 272.985C201.542 278.55 203.973 284.297 206.758 289.232C209.365 293.543 212.419 299.112 216.124 302.646C218.116 304.385 219.32 305.717 221.116 307.869C222.429 309.507 225.157 310.297 226.221 312.323C223.184 312.716 220.33 309.523 218.008 307.944C216.194 306.829 215.639 305.266 214.143 304.081C212.781 303.148 211.934 301.732 210.73 300.4C209.043 298.553 207.985 297.512 206.578 295.608C205.595 293.81 204.1 292.625 202.801 291.026C199.84 287.528 198.708 283.379 195.721 279.933C194.034 278.085 193.675 276.109 193.207 273.828C192.631 271.242 190.943 269.395 189.522 267.453C187.401 264.386 185.151 259.991 183.822 256.256C182.941 253.778 181.629 252.141 180.551 250.077C179.582 248.318 179.331 246.646 178.032 245.047C175.484 241.746 174.169 238.049 171.508 235.517C169.478 233.792 159.951 214.853 157.15 216.879C153.397 219.245 154.455 213.287 152.459 212.623C149.926 211.419 148.955 207.6 146.276 206.105C143.978 204.475 140.866 201.761 138.513 201.181C136.249 200.612 134.473 199.483 132.12 198.903C130.842 198.327 131.615 200.5 129.73 199.066C127.591 197.036 122.184 198.615 119.56 199.205C115.582 200.21 111.741 201.692 108.118 203.618C108.224 201.863 110.275 200.747 111.655 200.643C113.288 200.405 114.137 198.687 115.896 197.717C119.492 195.219 123.69 193.726 128.056 193.393C135.893 193.24 143.509 195.991 149.44 201.116C151.768 197.883 135.961 191.955 133.585 192.156C132.205 192.26 131.679 192.834 130.622 191.793C130.392 191.145 129.673 191.057 129.063 191.274C126.635 191.45 124.659 191.81 122.378 192.278C118.177 192.846 114.167 194.389 110.669 196.785C109.947 193.908 112.499 192.27 114.906 191.071C117.314 189.871 119.053 187.879 121.569 186.984C127.172 184.991 133.515 184.109 139.118 185.98C140.702 186.448 142.285 186.915 144.04 187.021C145.82 187.075 145.318 187.597 147.024 188.407C149.199 189.694 151.539 190.236 153.654 192.318C154.844 193.612 155.989 193.935 156.874 195.337C157.213 196.29 158.332 196.537 159.28 197.272C161.616 198.889 161.921 202.645 164.636 203.397C165.803 197.744 157.518 196.182 156.691 191.925C155.234 190.725 153.637 190.22 151.824 189.104C150.997 188.712 150.15 187.295 148.966 186.986C148.248 186.898 147.491 186.824 147.471 185.801C146.448 185.821 145.264 185.512 144.437 185.119C139.177 183.126 135.183 181.798 129.704 182.33C125.948 182.635 122.178 182.903 118.87 184.466C116.5 185.652 114.348 187.448 112.137 188.234C113.395 187.787 113.069 186.872 113.379 185.689C114.077 184.754 115.118 183.696 116.267 182.944C118.406 181.11 121.01 179.497 123.793 178.507C129.631 176.087 134.139 176.931 140.014 177.633C149.374 179.198 160.207 184.062 166.105 191.711C159.977 183.414 168.82 192.463 166.105 191.711C169.285 192.684 169.769 197.063 172.213 198.984C172.484 197.815 171.231 197.187 173.182 196.879C172.735 195.622 172.143 194.802 170.865 194.226C170.417 192.968 169.678 191.857 168.926 190.708C167.736 189.413 166.265 188.176 164.756 186.952C161.899 184.834 158.791 181.045 155.123 180.632C152.916 180.343 151.242 178.534 148.927 177.941C146.587 177.399 144.506 176.378 142.275 176.142C137.521 174.921 132.611 174.424 127.709 174.667C129.665 173.284 132.506 173.304 134.679 172.531C136.585 171.854 136.869 170.722 138.324 169.861C139.74 169.014 141.863 168.946 143.171 167.794C144.198 166.698 144.704 165.102 145.72 164.096C147.504 163.075 149.264 162.106 150.196 160.744C151.274 158.944 153.715 158.805 155.888 158.032C157.519 155.735 162.173 153.006 166.038 153.006L166.051 153.044ZM109.092 208.167C109.417 209.081 108.051 209.224 108.841 210.36C110.081 210.949 111.929 209.262 112.99 209.228C112.739 207.556 110.98 208.526 110.095 207.123C115.736 205.116 122.672 201.92 128.656 202.926C130.144 203.127 130.666 203.628 132.534 202.964C133.202 203.756 134.639 203.933 135.714 203.937C138.423 204.745 140.937 206.101 143.1 207.922C147.232 211.691 150.9 215.968 155.032 219.737C156.527 220.923 157.71 221.232 158.253 222.756C158.592 223.709 159.197 224.567 159.852 225.322C160.604 226.471 163.512 231.749 164.594 228.874C166.102 230.097 166.679 232.683 167.844 234.029C169.105 235.642 170.722 237.171 171.386 239.038C172.606 242.469 175.597 244.84 176.817 248.27C178.037 251.701 180.267 255.073 182.083 258.248C183.791 261.119 185.246 264.122 186.649 267.101C188.696 270.924 189.509 275.143 192.313 279.041C193.282 280.8 194.542 282.413 194.902 284.389C195.424 284.89 195.959 285.43 196.702 285.466C196.589 286.236 196.806 286.846 197.145 287.799C198.03 289.202 197.796 289.629 199.305 290.852C200.362 291.893 201.139 292.991 201.694 294.554C202.345 296.383 201.894 296.2 203.999 297.169C205.399 298.088 206.456 299.129 207.355 300.57C202.168 304.819 182.123 267.294 179.981 263.204L176.71 257.025C175.958 255.875 174.609 254.981 173.965 254.137C173.26 250.223 170.098 248.213 168.352 245.356C167.504 243.94 168.118 242.648 167.023 241.621C165.674 240.726 163.969 239.916 162.817 238.608C160.786 236.883 159.257 234.636 156.332 234.259C156.152 236.771 161.6 241.102 163.396 243.254C165.892 246.513 168.259 249.867 170.494 253.31C173.175 256.865 175.723 260.167 176.964 264.62C178.279 268.317 181.17 271.497 182.986 274.672C186.583 281.766 190.396 289.469 195.714 295.607C197.026 297.244 198.605 298.787 200.223 300.316C201.788 301.82 201.104 302.793 199.866 304.264C197.892 306.683 194.767 307.795 192.106 309.128C190.042 310.205 181.746 310.665 180.268 308.443C179.421 307.027 177.698 307.253 176.261 307.077C174.786 306.915 173.583 305.582 172.22 304.65C171.177 303.647 169.593 303.18 168.733 301.725C167.885 300.309 168.068 299.858 165.729 299.316C163.865 298.905 162.302 299.461 160.502 298.384C159.14 297.452 157.143 296.788 156.282 295.333C155.397 293.931 155.184 292.246 154.52 290.378C153.978 288.854 152.598 288.958 151.516 287.969C148.658 285.851 145.875 282.976 143.253 280.431C141.757 279.246 139.822 277.787 138.365 276.588C136.564 275.511 136.53 274.449 135.561 272.69C135.344 272.08 133.422 270.66 133.619 270.247C134.748 268.471 132.27 269.352 131.43 268.921C130.815 270.213 132.433 271.742 132.758 272.657C130.635 272.725 128.317 266.207 126.955 265.274C124.938 263.587 123.752 261.218 122.261 258.958C121.579 258.127 118.199 255.507 118.287 254.789C118.597 253.606 115.936 251.074 115.197 249.963C114.406 248.827 113.383 248.847 112.41 248.163C111.352 247.122 110.614 246.011 109.556 244.97C106.679 241.829 101.183 240.262 97.4067 239.545C92.3854 238.45 87.1533 238.848 82.3552 240.69C80.8304 241.232 78.2061 241.822 77.847 243.71C78.5476 244.835 80.8628 245.429 81.3304 243.845C81.653 242.7 86.8636 241.534 88.623 240.565C91.1389 239.67 93.942 239.703 96.3657 240.602C101.129 242.042 104.989 243.117 108.549 247.089C105.891 246.617 103.899 244.879 101.057 244.859C97.4841 244.712 94.4641 244.069 90.8528 243.936C87.6363 243.706 84.4224 245.537 82.0871 247.784C80.2015 249.485 76.7166 252.485 74.2049 252.305C75.2282 252.284 74.3133 252.61 73.9703 252.732C73.4688 253.254 74.5261 254.295 73.3062 254.728C70.6276 253.234 74.1302 249.197 74.9543 247.53C75.7649 245.825 77.2327 241.138 79.6605 240.961C80.6838 240.941 80.8464 239.466 81.3115 239.687C82.5517 240.277 81.6368 240.602 83.3962 239.633C85.4606 238.555 86.9896 236.938 88.9455 235.555C91.8544 233.834 93.2412 234.714 96.1663 235.091C97.9461 235.145 98.7906 234.501 100.482 235.273C101.736 235.901 102.685 236.637 103.841 236.87C109.337 238.436 113.204 244.36 117.57 247.702C118.933 248.634 120.478 249.115 121.034 250.678C121.359 251.593 122.027 252.385 123.051 252.365C126.427 252.924 121.41 247.753 121.18 247.105C120.441 245.994 119.113 246.123 118.322 244.987C117.889 243.767 117.136 242.618 115.844 242.004C113.974 240.608 112.357 239.079 110.448 237.697C101.34 230.803 90.7401 228.648 80.2717 233.745C81.7599 230.082 85.3668 227.425 86.0146 223.33C89.5334 221.392 94.134 220.442 96.9141 217.393C98.4812 215.762 101.28 216.87 103.166 215.169C104.264 214.392 104.135 213.064 105.176 212.007C106.508 210.803 106.506 208.743 107.73 207.234C107.386 207.356 108.177 208.492 109.092 208.167ZM104.529 205.238C103 206.855 100.522 207.737 99.5016 209.817C99.2847 209.207 99.1763 208.902 99.4812 208.794C99.3185 206.404 100.631 204.177 103.108 203.296C102.031 205.096 103.937 204.418 104.529 205.238ZM108.118 247.929C109.092 248.613 109.735 249.458 110.474 250.569C110.169 250.678 110.169 250.677 109.756 250.481C108.891 250.102 108.64 248.43 108.118 247.929ZM257.644 316.518C257.102 314.994 257.806 315.044 259.173 314.901C260.806 314.664 260.824 313.627 261.596 315.8C260.986 316.017 260.627 314.04 259.855 315.732C259.907 317.087 258.902 316.071 257.644 316.518ZM281.354 311.95C282.649 310.76 283.801 312.067 282.92 313.454C282.163 313.38 281.628 312.84 281.303 311.925L281.354 311.95ZM328.544 290.572C329.276 290.698 329.188 291.417 328.775 291.22L328.544 290.572ZM326.145 279.961C328.013 279.297 328.008 280.372 327.527 281.917C327.202 281.002 326.68 280.501 326.145 279.961ZM367.2 253.166C367.61 251.302 370.488 250.579 370.142 248.641C372.353 247.855 372.59 245.624 372.245 243.686C374.151 243.008 374.151 243.008 373.486 241.14C374.293 240.51 374.272 239.487 375.442 239.758C375.279 237.368 377.043 235.324 377.307 233.169C378.87 232.613 379.247 229.688 380.033 228.035C381.383 225.794 380.61 223.622 381.81 222.165C382.424 220.873 382.6 219.436 383.214 218.144C383.842 216.891 383.194 217.121 383.408 215.671C383.571 214.196 385.31 212.204 383.839 210.966C384.232 210.14 385.598 206.133 385.185 205.936C386.368 206.245 386.066 208.414 385.686 209.279C386.75 211.305 386.5 213.498 386.211 215.704C385.906 219.677 386.038 223.065 386 226.943C385.912 227.661 385.179 234.534 384.352 234.142C383.331 236.222 383.056 238.467 382.34 240.439C381.358 242.506 382.266 241.195 382.503 242.828C381.893 243.045 379.933 241.638 380.025 243.71C380.13 245.089 379.825 245.198 379.269 243.635C378.228 244.692 377.686 243.168 376.466 243.602C375.533 244.964 377.15 246.492 376.428 247.479C374.834 249.034 372.591 249.488 371.132 251.424C369.806 253.613 368.959 252.197 367.2 253.166ZM474.556 194.374C475.987 190.43 479.227 197.608 479.369 198.974C476.44 199.672 475.003 195.632 474.569 194.412L474.556 194.374ZM478.559 200.679C479.39 199.997 479.081 201.18 479.189 201.485C478.776 201.289 478.654 200.946 478.545 200.641L478.559 200.679ZM293.766 108.995C293.157 109.212 292.818 108.259 292.208 108.476C292.601 107.649 293.841 108.238 293.766 108.995ZM78.8278 285.225C78.7939 284.164 77.4452 283.269 77.4113 282.208C78.3058 280.859 79.3468 279.802 80.3743 278.707C82.4183 276.606 84.9519 274.674 86.8739 272.23C89.8735 271.85 92.335 268.871 95.1559 267.868C99.1966 266.431 96.6809 271.19 95.9652 273.162C95.3892 274.44 95.7281 275.393 95.1005 276.647C94.1679 278.009 95.3717 279.341 94.401 280.717C93.4861 281.042 93.3981 281.76 94.1504 282.91C93.6268 283.487 93.2851 284.206 93.1678 284.977C92.8587 286.16 92.5877 287.33 92.7165 288.658C93.4553 289.769 93.0242 290.61 91.2444 290.556C91.5697 291.47 91.7866 292.08 91.7121 292.837C92.3764 294.704 90.9261 294.49 90.9423 296.588C91.2135 299.283 89.6668 301.937 91.6094 304.38C90.3178 307.631 91.5378 311.061 92.3309 314.257C93.212 316.734 93.0317 319.246 94.1094 321.31C94.9566 322.726 94.584 324.576 95.4447 326.03C96.4275 327.828 96.8613 329.047 97.207 330.985C97.7087 334.328 99.7216 337.09 100.515 340.286C101.179 342.153 101.538 344.129 102.006 346.411C100.66 347.576 99.2597 346.657 98.8123 345.4C97.9447 342.96 95.0196 342.584 94.1384 340.106C93.3657 337.933 90.3795 334.487 88.9452 332.507C88.6334 331.63 90.5394 330.952 89.444 329.925C88.8137 329.119 88.2038 329.336 87.4677 330.284C84.5046 333.786 95.9007 345.061 97.9272 347.861C96.0594 348.526 93.961 348.542 92.2939 347.718C91.4425 347.377 89.8253 345.848 88.7139 346.587C87.6728 347.644 87.7813 347.949 86.591 346.655C85.5337 345.614 85.0999 344.394 83.8462 343.767C82.5678 343.191 82.1748 344.018 81.2895 342.615L80.5168 340.442C80.0694 339.185 79.6357 337.965 78.4903 337.642C75.2153 336.403 77.819 330.925 75.3046 328.685C76.721 327.838 75.0172 323.892 75.3399 322.747C76.0039 320.751 75.8249 316.263 75.1742 314.433C74.7269 313.176 73.7739 313.515 74.903 311.739C75.2824 310.874 75.14 309.508 74.7062 308.288C74.3986 306.337 75.6226 304.828 76.4087 303.174C76.8262 302.296 77.1244 301.202 77.5419 300.324C76.982 299.836 76.7515 299.188 76.4262 298.273C73.9484 299.154 75.4057 304.218 72.368 304.611C73.2152 306.028 74.0759 307.482 72.2081 308.146C72.1404 309.888 71.7813 311.776 70.8623 313.176C71.1158 316.907 72.1393 320.751 70.9561 324.306C69.7727 323.997 69.9352 322.523 69.1965 321.411C68.9796 320.801 68.0647 321.127 67.8478 320.517C66.9127 319.267 66.2676 317.824 65.9594 316.294C65.8686 314.952 65.7262 313.586 65.9972 312.416C65.9769 311.393 64.9875 312.475 64.9535 311.413C64.9128 309.367 66.2113 307.102 66.927 305.13C67.6427 303.158 67.1953 301.9 68.6294 300.016C70.0499 298.094 71.4839 296.21 73.4263 294.789C75.1154 293.501 79.7456 290.824 75.0407 290.393C73.4778 290.949 73.067 292.813 71.4338 293.05C72.1994 290.373 74.6949 288.455 75.885 285.885C75.8646 284.862 78.9771 287.576 78.8278 285.225ZM130.845 349.378C130.845 349.378 131.003 348.979 130.736 349.074C131.003 348.979 131.346 348.857 131.543 348.443C132.153 348.226 132.295 349.593 132.085 349.968C131.685 349.809 130.915 349.697 130.807 349.392L130.845 349.378ZM165.642 312.958C158.238 313.873 154.274 307.555 150.083 302.776C150.243 299.242 146.474 299.509 144.836 296.957C146.094 296.51 148.809 297.261 149.073 298.971C149.704 299.777 151.07 299.635 151.897 300.028C152.687 301.163 153.623 301.861 154.68 302.902C158.511 305.704 163.073 308.633 165.642 312.958ZM479.3 183.928C477.195 182.959 476.743 182.776 475.361 180.82C473.565 178.668 472.074 176.408 469.808 175.109C468.568 174.52 467.511 173.479 466.537 172.795C465.928 173.012 465.28 173.242 464.561 173.154C465.067 171.557 462.264 171.524 461.507 171.449C461.094 171.253 460.446 171.483 459.836 171.7C459.605 171.052 459.389 170.443 458.853 169.903C454.989 169.904 451.395 168.734 447.408 168.392C445.286 168.46 444.526 166.325 443.252 164.674C441.49 163.584 440.47 165.664 438.94 163.417C437.002 159.899 437.162 156.364 434.589 153.114C428.915 147.269 421.504 143.413 413.46 142.123C409.67 141.367 406.637 140.685 403.147 140.896C399.419 140.85 395.711 141.457 392.191 142.689C391.54 140.859 390.192 139.965 388.524 139.141C386.819 138.33 386.08 137.219 384.876 135.887C382.52 133.247 379.27 131.956 376.324 130.556C374.633 129.783 373.036 129.278 371.674 128.346C369.982 127.573 370.393 125.71 369.728 123.842C368.739 121.06 366.491 118.725 363.654 117.63C360.531 116.262 357.236 115.325 353.861 114.844C351.959 114.447 350.701 114.894 349.029 115.145C347.288 115.078 346.192 114.05 344.521 114.301C341.178 114.803 338.179 115.183 334.639 116.098C332.429 116.885 330.33 116.901 328.354 117.26C327.439 117.586 326.378 117.62 325.425 117.959C325.228 118.372 325.337 118.677 325.14 119.09C325.208 117.349 317.323 119.81 315.166 118.816C317.574 117.617 308.536 114.906 307.696 114.474C306.113 114.007 304.421 113.235 302.754 112.411C301.889 112.031 301.367 111.53 300.418 110.794C300.92 110.272 300.811 109.967 300.289 109.466C297.001 108.188 296.015 104.331 292.727 103.053C291.143 102.586 289.255 102.227 287.696 101.708C286.005 100.935 285.16 101.579 283.38 101.525C281.282 101.542 281.822 101.006 280.523 99.4071C279.662 97.9528 278.496 96.607 277.11 95.7262C274.704 93.791 271.524 92.8181 268.686 91.7232C265.093 90.5539 262.001 92.727 258.103 91.6661C255.749 91.0862 252.499 89.7948 250.36 91.6289C252.624 96.0621 262.74 93.8382 266.835 94.4857C269.757 95.1165 272.447 96.5442 274.607 98.6106C276.767 100.677 278.312 103.301 279.071 106.192C279.376 106.084 280.526 105.331 280.743 105.941C281.285 107.466 281.732 108.724 282.593 110.178C283.926 112.838 285.417 115.099 286.908 117.36C288.437 119.607 289.623 121.976 290.701 124.04C291.243 125.564 293.057 126.68 293.917 128.134C294.873 129.855 295.754 132.333 297.53 133.462C297.731 135.837 299.565 137.976 301.131 139.48C302.832 141.366 302.96 142.694 304.038 144.758C304.777 145.869 305.872 146.896 307.435 146.341C307.598 144.866 306.662 144.168 305.689 143.484C304.632 142.443 305.011 141.578 304.273 140.467C303.425 139.05 301.415 138.349 300.459 136.627C299.816 135.783 300.622 135.153 299.687 134.455C299.151 133.915 298.591 133.428 298.704 132.658C298.053 130.828 296.131 129.408 295.589 127.883C295.142 126.625 294.511 125.819 294.186 124.904C292.982 123.572 293.233 125.243 292.155 123.179C290.969 120.81 289.891 118.746 288.362 116.499C286.871 114.238 285.38 111.978 284.086 109.304C283.187 107.863 282.434 106.714 282.649 105.263C282.737 104.545 282.716 103.522 282.486 102.874L288.79 105.87C289.981 107.164 290.353 109.178 290.661 111.13C290.878 111.74 291.041 114.129 292.224 114.438C292.834 114.221 293.247 114.418 293.464 115.028C293.702 116.661 294.684 118.458 295.532 119.874C300.081 126.629 305.399 132.767 309.104 140.165C309.951 141.582 310.29 142.534 311.455 143.88C311.977 144.382 312.646 145.174 312.863 145.784C313.418 147.347 314.083 149.215 314.93 150.631C315.608 152.537 316.455 153.953 317.424 155.712C318.38 157.433 318.204 158.87 318.881 160.775C319.641 162.91 321.023 164.866 321.796 167.038C322.243 168.296 322.318 171.404 323.253 172.102C323.775 172.603 325.429 177.253 324.096 178.457C323.365 178.331 322.677 173.38 321.225 176.301C320.561 178.297 321.748 180.666 322.717 182.426C323.903 184.795 323.743 188.329 324.319 190.915L326.963 198.348C327.505 199.873 326.369 200.663 326.658 202.321C326.532 203.053 327.593 203.019 327.575 204.055C327.237 206.967 327.578 209.98 328.911 212.64C327.545 212.783 330.436 215.962 330.113 217.107C329.842 218.277 328.819 218.297 329.436 219.066C329.971 219.605 330.384 219.802 330.615 220.45C327.798 220.378 332.003 230.39 331.427 231.668C331.034 232.495 330.838 232.908 331.773 233.606C330.98 234.274 330.854 235.006 330.926 236.054C330.786 236.748 330.82 237.809 329.976 238.453C330.084 238.758 331.417 241.418 329.942 241.256C329.705 239.623 329.454 237.952 330.264 236.246C329.492 234.074 328.61 231.596 328.875 229.441C329.15 227.197 327.977 224.866 327.51 222.585C327.042 220.304 326.917 217.9 325.605 216.263C325.388 215.653 326.341 215.314 326.016 214.4C325.677 213.447 325.548 212.119 325.209 211.166C324.633 208.58 324.057 205.994 322.87 203.625C321.664 200.232 321.607 196.088 320.387 192.657C319.038 187.899 316.323 183.283 314.669 178.633C313.245 174.631 311.822 170.628 309.47 166.913C304.207 158.996 300.664 150.123 294.265 142.995C289.591 137.702 285.208 132.262 280.408 127.7C278.269 125.67 276.022 123.335 274.104 120.84C272.27 118.701 271.389 116.224 269.175 114.95C267.813 114.018 268.097 112.886 266.735 111.954C265.757 111.231 264.868 110.394 264.088 109.46C263.335 108.311 262.996 107.358 261.718 106.782C260.769 106.046 259.796 105.362 259.362 104.142C258.806 102.579 258.61 102.993 257.37 102.403C258.142 100.712 257.403 99.6005 256.346 98.5596C254.207 96.5295 251.763 94.6078 249.515 92.2728C247.197 89.6193 246.709 86.315 244.34 83.6369C242.423 81.3163 240.17 79.2955 237.656 77.6414C233.52 74.9475 228.239 71.9309 222.689 72.1442C220.672 70.4571 216.363 71.2598 214.133 71.7522C213.058 71.7481 213.58 72.2495 213.506 73.006C213.113 73.8327 210.793 74.3141 210.075 74.2261C207.132 74.8863 204.399 75.1713 201.956 77.1139C199.498 79.0183 197.416 81.1328 194.826 82.7841C189.764 86.3016 183.246 84.7557 178.516 88.2411C174.566 91.0199 175 96.1038 175.484 100.483C175.613 101.811 174.229 102.99 172.901 103.119L171.697 105.651C170.873 107.318 169.758 109.132 169.398 111.02C169.022 113.945 170.93 115.327 167.838 117.5C167.231 119.777 166.421 121.483 164.465 122.865C163.157 124.017 161.339 123.977 161.481 125.343C161.364 126.114 161.022 126.833 160.499 127.41C159.345 129.237 160.535 130.531 159.42 132.345C158.596 134.012 160.209 136.616 157.914 137.046C157.948 138.107 158.558 137.89 159.08 138.391C159.748 139.184 158.307 140.083 157.876 140.923C156.442 142.807 154.75 145.899 154.448 148.068C154.272 149.505 152.292 150.939 151.397 152.287C149.938 154.223 147.878 154.226 147.176 156.236C146.657 157.795 145.379 157.219 146.043 159.087C146.368 160.001 145.453 160.327 144.952 160.849C144.213 159.737 145.216 158.694 144.477 157.582C142.182 158.012 142.542 159.988 142.436 161.743C140.799 163.056 140.53 166.285 138.127 166.41C138.558 165.57 139.168 165.353 138.843 164.438C136.814 165.131 134.915 166.155 133.221 167.468C131.462 168.437 129.574 168.078 128.266 169.23C124.221 171.742 119.787 170.142 115.654 173.372C112.366 175.959 108.863 179.995 106.314 183.693C104.574 185.686 107.737 187.695 105.259 188.577C103.353 189.254 105.153 190.332 105.492 191.285C102.947 193.907 105.319 198.645 101.705 200.317C98.9929 201.625 97.3759 203.961 96.6941 206.994C95.9784 208.966 97.2661 210.655 96.442 212.322C95.4594 214.389 93.8924 216.02 92.9098 218.087C89.1699 220.49 85.2918 220.453 82.2068 223.611C80.1764 225.75 77.3555 226.753 76.5653 229.482C74.7314 231.207 73.6768 232.226 73.8532 234.654C73.982 235.982 73.5644 236.861 73.2799 237.992C72.8691 239.856 74.3236 238.995 73.3165 241.114C72.1128 243.646 71.2142 246.069 69.1702 248.17C69.4033 250.878 68.7216 253.912 69.2978 256.498C69.7451 257.755 70.4839 258.867 70.3213 260.341C70.0368 261.473 69.8225 262.923 69.881 263.933C69.9312 267.092 71.8738 269.536 71.9104 272.657C71.642 275.887 71.7667 278.29 73.4043 280.842C75.2343 284.056 71.9324 286.604 69.9019 288.743C67.8198 290.858 66.3113 293.498 64.8027 296.138C63.9786 297.805 63.2968 300.839 61.6458 302.113C60.5099 302.903 60.8149 302.795 61.3707 304.358C60.6727 305.293 60.2797 306.12 60.2619 307.157C59.7266 312.796 60.5418 318.482 62.6399 323.743C63.6431 326.564 65.2807 329.116 67.1852 331.573C68.6059 333.515 71.321 334.267 72.7036 336.222C73.8938 337.517 75.2738 337.412 76.4395 338.758C77.4832 339.761 77.6256 341.127 78.3644 342.238C79.8554 344.499 82.0326 346.516 83.6322 349.081C86.0423 349.941 87.6553 352.545 89.0244 354.463C91.3777 355.042 93.0653 356.89 95.455 356.727C99.5677 356.337 103.714 349.281 107.148 353.985C107.886 355.096 108.835 355.832 109.77 356.53C111.266 357.716 111.283 356.679 112.734 356.893C114.857 356.825 116.402 357.306 117.944 355.727C119.616 355.476 123.643 357.865 123.715 355.049C123.871 352.589 127.627 352.283 129.799 351.511C134.075 349.647 139.156 347.152 140.344 342.522C142.517 341.749 143.503 338.608 145.032 336.99C147.185 335.194 147.989 332.504 149.179 329.934C150.091 327.548 150.468 324.624 151.475 322.505C152.997 319.903 156.486 319.692 158.747 318.201C158.205 316.676 155.655 316.51 154.205 316.296C151.865 315.754 153.231 315.611 153.445 314.161C153.52 313.405 152.425 312.377 151.815 312.594C150.195 312.87 150.679 313.385 149.1 311.843C147.482 310.314 145.669 309.198 143.798 307.803C141.462 306.186 139.54 304.766 136.482 304.136C133.862 303.651 133.015 302.235 130.788 300.923C128.147 299.415 123.622 296.473 120.097 297.426C120.856 299.56 122.794 299.215 124.734 299.598C126.693 300.275 128.744 303.024 130.971 304.336C133.16 305.661 135.73 306.851 138.249 308.016C139.954 308.826 140.51 310.389 141.533 310.369C144.591 310.999 147.201 317.37 147.072 319.906C147.088 322.004 147.125 325.125 145.887 326.596C144.688 328.053 144.291 329.955 143.175 331.768C141.703 333.666 140.571 333.382 139.785 335.035C138.252 337.727 137.215 337.71 134.791 336.811C132.795 336.147 131.591 334.815 131.575 332.717C130.012 333.273 129.127 331.87 128.374 330.721C127.188 328.352 126.917 329.522 125.212 328.711C124.886 327.796 125.083 327.383 125.049 326.322C123.395 325.536 123.416 326.559 123.361 324.474C123.016 322.536 120.789 321.225 120.429 319.248C120.23 317.602 118.091 315.572 116.081 314.87C117.409 318.605 119.639 321.977 121.577 325.495C123.215 328.047 123.448 330.755 124.767 333.378C125.77 336.198 128.018 338.533 130.119 340.577C131.309 341.871 131.54 342.519 133.32 342.573C134.343 342.552 135.025 343.383 135.725 344.508C135.007 344.42 133.18 347.131 132.617 344.583C130.603 344.956 130.122 346.501 128.471 347.775C127.373 348.552 127.448 347.796 126.42 348.891C125.271 349.643 124.051 350.077 122.793 350.525C121.23 351.081 120.08 351.833 118.718 350.9L115.321 349.318C110.704 348.169 107.891 337.362 106.441 333.283C105.56 330.806 103.278 331.274 103.045 328.566C102.774 325.871 100.526 323.536 101.317 320.808C99.1776 318.778 99.4799 316.609 98.5987 314.132C97.5956 311.311 96.7144 308.833 96.3347 305.834C95.7585 303.248 95.5254 300.54 95.2542 297.846C95.36 296.091 94.3391 294.307 96.1121 293.376C96.1839 290.559 96.8657 287.526 97.6559 284.797C98.1411 282.177 97.8699 279.483 99.7919 277.039C99.3622 274.744 100.796 272.86 101.155 270.972C101.763 268.695 99.5355 267.384 100.041 265.787C101.491 266.001 103.597 266.97 105.159 266.414C105.95 263.685 103.668 264.153 101.462 263.865C97.7936 263.452 95.6884 262.483 91.8307 263.469C89.9247 264.146 88.3999 264.689 86.7244 266.015C85.3081 266.862 84.8973 268.725 83.0295 269.39C79.4903 270.305 79.4024 274.887 76.3469 276.318C75.4319 272.779 78.7311 268.17 80.7997 266.018C81.4976 265.083 82.6675 265.354 82.2202 264.096C82.3082 263.377 82.6132 263.269 83.2231 263.052C84.5895 262.91 85.6713 263.899 87.1961 263.356C85.5017 260.524 88.2168 261.276 90.4277 260.49C92.709 260.022 95.0783 258.836 97.3977 258.354C101.852 257.114 107.919 262.341 110.6 265.896C108.845 265.79 107.242 264.299 105.713 265.917C106.56 267.333 108.105 267.814 109.383 268.389C110.98 268.895 112.234 269.522 112.509 271.142C113.946 271.318 115.832 269.617 115.186 271.907C115.024 273.382 118.685 272.81 119.173 272.25C118.974 270.603 117.18 270.511 116.943 268.878C115.141 267.986 113.65 266.571 112.665 264.818C111.913 263.669 112.235 262.523 110.638 262.018C109.577 262.052 109.36 261.442 109.378 260.405C108.93 259.147 106.662 255.789 105.1 256.345C102.927 257.118 103.846 255.717 101.944 255.32C100.788 255.088 98.6689 254.081 98.1879 255.626C95.9743 254.352 93.5668 255.552 91.394 256.325C88.7697 256.914 86.5969 257.687 84.0106 258.264C82.3257 258.476 80.9593 258.619 79.6269 259.823C79.1254 260.344 78.4274 261.28 77.8879 261.815C76.1988 263.103 75.1551 262.1 74.7958 260.124C74.4746 258.134 76.268 258.226 75.7122 256.664C75.1699 255.139 76.5727 254.254 77.2003 253C77.706 251.403 76.448 251.851 78.659 251.064L81.1367 250.183C82.8961 249.214 84.9605 248.136 85.6627 246.126C87.761 246.11 90.2591 246.252 92.3235 245.174C94.5344 244.388 96.1881 245.173 98.5414 245.753C99.9781 245.929 101.453 246.092 102.711 245.644C102.941 246.292 103.158 246.902 103.572 247.099C106.76 248.456 109.572 250.564 111.769 253.243C113.018 254.945 112.788 254.297 114.351 253.742C115.609 253.294 116.076 255.575 116.598 256.077C118.019 258.019 119.097 260.083 121.202 261.052C121.631 263.346 123.967 264.963 125.279 266.6C126.018 267.711 128.119 269.755 128.153 270.816C128.173 271.84 130.326 273.908 131.248 274.568C132.343 275.595 132.669 276.51 133.421 277.659C134.16 278.77 135.217 279.811 136.78 279.255C137.394 277.964 135.289 276.995 136.025 276.046C141.559 282.794 149.163 287.389 154.823 293.405C156.549 295.239 158.885 296.855 160.769 298.289C162.691 299.709 163.755 301.735 165.874 302.742C168.552 304.237 170.653 306.281 173.097 308.202C173.816 308.29 176.765 308.615 176.908 309.982C173.966 309.782 171.114 308.882 168.589 307.358C167.202 306.478 165.802 305.559 164.636 304.213C163.071 302.709 163.701 303.515 164.437 302.566C165.209 300.875 161.684 301.828 161.379 301.936L158.182 298.865C155.63 296.639 152.881 294.826 149.592 293.548C148.462 292.169 147.101 290.997 145.569 290.084C142.227 290.586 144.722 288.668 143.631 286.565C140.79 286.546 141.523 279.672 137.986 282.648C138.325 283.601 140.213 283.96 139.82 284.786C140.125 284.678 140.125 284.678 138.976 285.43C139.319 285.308 139.515 284.895 139.82 284.786C139.515 284.895 139.21 285.003 138.976 285.43C137.844 285.146 138.743 282.722 137.376 282.865C135.743 283.102 136.943 281.645 136.299 280.801C135.108 279.506 134.393 281.478 133.475 279.744C132.685 278.608 131.539 278.285 130.586 278.624C130.119 280.207 131.373 280.835 132.543 281.106C134.126 281.573 135.287 283.994 136.478 285.288C138.834 287.928 142.118 290.281 144.583 293.226C141.741 293.206 139.823 290.711 137.806 289.024C135.776 287.298 133.243 286.095 131.142 284.051C129.952 282.757 129.091 281.303 128.427 279.435C127.257 279.164 125.929 279.293 124.759 279.022C124.169 276.398 122.692 274.176 120.451 272.826C114.773 275.575 123.738 281.103 125.573 283.241C126.311 284.353 130.44 286.061 129.311 287.837C127.263 291.013 131.721 288.697 133.318 289.203C133.339 290.226 132.277 290.26 132.297 291.283C133.138 291.714 134.111 292.399 134.952 292.83C136.643 293.602 138.08 293.778 140.002 295.198C142.555 297.425 148.358 300.943 149.311 304.468C149.849 307.068 152.598 308.881 154.31 310.676C155.367 311.717 156.106 312.828 156.858 313.978C157.811 313.639 158.638 314.032 159.503 314.411C159.625 314.754 163.059 315.594 163.707 315.364C165.683 315.004 168.086 314.879 170.083 315.543C170.3 316.153 169.581 316.065 169.812 316.713C171.337 316.171 173.028 316.943 174.591 316.387C174.571 315.364 173.012 314.845 172.992 313.822C172.938 311.737 174.467 313.984 174.684 314.594C175.436 315.743 176.025 314.503 176.551 313.93C177.358 313.299 181.954 313.425 183.138 313.734C188.064 313.7 193.417 313.9 198.176 312.551C201.41 311.744 204.624 309.914 208.075 309.717C207.628 308.459 210.123 306.541 210.842 306.629C212.316 306.791 212.743 307.026 212.764 308.049C212.55 309.499 213.699 308.747 214.564 309.126C216.231 309.95 217.435 311.283 219.072 309.97C219.52 311.228 222.465 312.628 223.4 313.326C225.018 314.855 227.624 315.302 229.635 316.004C231.432 315.021 231.414 316.057 232.693 316.633C233.608 316.308 234.683 316.312 235.509 316.705C236.374 317.084 237.201 317.477 238.224 317.457C239.408 317.766 240.13 316.779 241.384 317.406C244.33 318.806 247.636 315.183 250.816 316.156C251.948 316.44 252.883 317.138 254.066 317.447C255.09 317.427 255.934 316.783 257.066 317.067C258.236 317.338 258.954 317.426 259.799 316.782C260.429 317.589 261.649 317.155 262.297 316.924C264.935 316.373 267.128 316.623 269.714 316.047C272.949 315.24 277.4 311.939 279.634 314.236C281.678 316 279.291 318.223 282.776 319.087L286.223 319.965C286.549 320.88 287.522 321.564 288.362 321.995C289.494 322.28 289.887 321.453 290.969 322.442C291.956 323.164 292.444 322.604 293.589 322.927C294.759 323.198 296.146 324.079 297.291 324.401C298.962 324.15 300.22 323.703 301.783 323.147C303.308 322.605 304.674 322.462 306.346 322.211C306.885 321.676 306.546 320.723 307.461 320.398C310.404 319.738 310.567 318.263 312.866 316.758C315.127 315.267 317.279 313.471 319.151 311.732C319.996 311.088 321.087 309.326 320.639 308.068C321.287 307.838 321.789 307.316 321.863 306.559C322.294 305.719 322.904 305.502 323.552 305.272C324.054 304.75 322.775 304.174 323.424 303.944C324.643 303.51 325.474 302.828 325.759 301.696C326.278 300.137 326.908 300.944 327.536 299.69C328.308 297.998 328.505 297.585 328.902 295.683C329.078 294.247 331.323 290.657 333.082 289.688C332.314 286.441 334.609 286.011 337.646 285.618C340.341 285.346 342.1 284.377 344.291 282.567C344.975 281.594 346.125 280.842 347.04 280.516C347.166 279.784 346.841 278.87 347.329 278.31C347.938 278.093 347.864 278.849 347.972 279.154C349.142 279.425 353.431 273.735 353.81 272.87C355.479 270.559 354.35 272.335 356.109 271.365C356.502 270.539 356.825 269.393 357.205 268.528C358.357 269.836 359.361 265.657 359.754 264.831C360.954 263.374 362.338 262.194 363.937 260.896C365.931 259.499 367.925 258.103 369.759 256.378C371.067 255.225 372.542 255.388 373.474 254.026C375.251 252.02 377.282 249.881 379.977 249.609C381.991 249.236 383.17 250.62 384.469 248.355C385.991 245.753 386.856 246.132 389.372 245.237C391.201 244.587 391.829 243.333 393.717 243.692C395.567 244.064 396.825 243.617 398.422 244.122C399.287 244.502 399.572 243.37 400.31 244.481C400.527 245.091 400.636 245.396 401.368 245.522C403.653 243.979 407.118 243.821 409.257 241.986C411.142 240.285 413.01 239.621 414.966 238.238C417.335 237.052 417.929 234.737 420.445 233.842C422.618 233.07 424.594 232.71 426.984 232.547C429.412 232.371 431.707 231.941 434.205 232.083C435.68 232.245 436.201 232.747 437.764 232.191C438.609 231.547 439.289 231.649 439.901 232.161C442.273 233.035 442.704 232.195 444.985 231.727C446.008 231.706 446.347 232.659 447.3 232.32C448.253 231.981 449.473 231.547 450.318 230.904C453.931 229.232 459.874 228.192 462.552 225.822C464.241 224.535 464.289 221.77 467.008 221.447C469.289 220.979 471.153 221.39 473.56 220.19C477.836 218.326 482.795 215.488 484.823 211.289C485.81 209.326 486.355 207.17 486.419 204.974C486.484 202.778 486.066 200.594 485.197 198.576C484.98 197.966 483.597 196.01 483.99 195.184C484.187 194.77 484.814 193.516 483.936 193.099C482.479 191.9 482.838 190.012 482.174 188.144C481.435 187.033 480.879 185.47 480.445 184.25C479.354 186.012 480.554 184.555 479.3 183.928ZM317.498 169.683C318.684 172.052 318.741 176.197 321.975 175.39C322.172 174.977 321.27 171.476 320.857 171.28C319.494 170.347 319.874 169.482 319.332 167.958C318.667 166.09 317.502 164.744 317.156 162.806C315.889 161.904 314.86 160.708 314.156 159.322C313.722 158.102 313.58 156.736 312.302 156.16C311.475 155.767 311.258 155.157 311.027 154.509C310.79 152.876 312.285 154.062 310.56 152.228C308.312 149.893 308.777 146.25 304.736 147.687C305.346 147.47 307.973 152.804 304.736 147.687L309.95 156.309C310.881 158.082 312.088 161.474 313.976 161.833C314.963 162.556 317.159 168.73 317.498 169.683ZM125.224 275.379C124.682 273.854 123.841 273.423 122.278 273.979C122.943 275.847 124.183 276.436 125.224 275.379ZM125.963 276.49C126.302 277.443 126.945 278.288 127.993 278.215C130.058 277.138 126.983 274.41 125.963 276.49Z" fill="#F7E8DC"/>
</g>
<defs>
<clipPath id="clip0_3_63">
<rect width="441" height="267" fill="white" transform="translate(0.0131836 147.777) rotate(-19.5783)"/>
</clipPath>
</defs>
</svg>
